# xmcd
#
# Track frame offsets:
#       150
#       34565
#       66027
#       96252
#       109972
#       131665
#       155305
#       173200
#       188210
#       206545
#
# Disc length: 3012 seconds
#
# Revision: 1
# Processed by: cddbd v1.5PL3 Copyright (c) Steve Scherf et al.
# Submitted via: WaveLab 4.01
#
DISCID=850bc20a
DTITLE=Fanfare Uitspanning Na Arbeid - UNANIEM
DYEAR=1994
DGENRE=Blasmusik
TTITLE0=La Storia Jacob de Haan - UNANIEM
TTITLE1=Musical Triptych R Defoort - UNANIEM
TTITLE2=Western melodien arr L van de Waarsenburg - UNANIEM
TTITLE3=Child´s Anthem D Paich arr W Hamans, L van de Waarsenburg - UNANIEM
TTITLE4=My Way Francois, Revaux arr L van de Waarsenburg - UNANIEM
TTITLE5=Eloise Barry Ryan arr L van de Waarsenburg - UNANIEM
TTITLE6=Holland special medley arr L van de Waarsenburg - UNANIEM
TTITLE7=New York New York Fred Ebb, John Kander arr L van de Waarsenburg - UNANIEM
TTITLE8=Bodygard David Foster arr L van de Waarsenburg - UNANIEM
TTITLE9=Superman J Williams arr L van de Waarsenburg - UNANIEM
EXTD=
EXTT0=
EXTT1=
EXTT2=
EXTT3=
EXTT4=
EXTT5=
EXTT6=
EXTT7=
EXTT8=
EXTT9=
PLAYORDER=
